<svg xmlns="http://www.w3.org/2000/svg" width="260" height="90" fill="none"><rect width="259" height="89" x=".5" y=".5" fill="#fff" stroke="#F9F9F7" rx="11.5"/><path fill="#00CCBC" d="M107.807 56.405h3.798l-.644-2.95V35.92h-3.629v8.004a5.685 5.685 0 0 0-4.375-2.001c-3.629 0-6.444 3.018-6.444 7.393 0 4.408 2.815 7.393 6.444 7.393a5.65 5.65 0 0 0 4.443-2.103l.407 1.798zm71.76-10.547c.746 0 1.425.203 2.035.644l1.73-3.866c-.814-.509-1.73-.712-2.646-.712-1.627 0-3.018.746-3.866 2.136l-.373-1.797h-3.73l.61 2.78V56.44h3.629v-9.055c.475-.95 1.39-1.526 2.611-1.526zm10.615 7.054c-2.102 0-3.662-1.39-3.662-3.561 0-2.205 1.56-3.561 3.662-3.561 2.137 0 3.663 1.356 3.663 3.56 0 2.137-1.526 3.562-3.663 3.562zm-90.142-3.595c0-2.205 1.56-3.561 3.663-3.561 2.137 0 3.663 1.356 3.663 3.56 0 2.171-1.526 3.562-3.663 3.562-2.103.034-3.663-1.39-3.663-3.561zm106.251 3.595c-2.103 0-3.663-1.39-3.663-3.561 0-2.205 1.56-3.561 3.663-3.561 2.137 0 3.663 1.356 3.663 3.56-.034 2.137-1.56 3.562-3.663 3.562zm-85.869-7.36c1.866 0 3.087.882 3.493 2.51h-6.986c.373-1.662 1.628-2.51 3.493-2.51zm43.376 0c1.865 0 3.086.882 3.493 2.51h-6.987c.441-1.662 1.662-2.51 3.494-2.51zm-17.703 10.853h5.833l3.798-14.21h-3.968l-2.747 11.53-2.781-11.496h-3.9l3.765 14.176zm-9.326 0h3.628v-14.21h-3.628v14.21zm-15.804.271c2.035 0 4.002-.577 5.664-1.628l-1.391-3.12a8.858 8.858 0 0 1-4.239 1.085c-1.899 0-3.222-.746-3.832-2.136h10.242a8.402 8.402 0 0 0 .169-1.662c0-4.409-3.052-7.325-7.088-7.325-4.103 0-7.088 2.984-7.088 7.393-.034 4.51 2.951 7.393 7.563 7.393zm92.482-7.36c0-4.408-3.052-7.392-7.156-7.392-4.137 0-7.156 3.018-7.156 7.393s3.052 7.393 7.156 7.393c4.104 0 7.156-2.985 7.156-7.393zm-49.141 7.394c2.035 0 4.002-.543 5.664-1.628l-1.391-3.12a8.855 8.855 0 0 1-4.239 1.085c-1.899 0-3.222-.746-3.832-2.136h10.242a8.328 8.328 0 0 0 .169-1.662c0-4.409-3.052-7.325-7.088-7.325-4.103 0-7.087 2.984-7.087 7.393 0 4.544 2.95 7.393 7.562 7.393zm25.876 0c4.138 0 7.156-3.018 7.156-7.393s-3.052-7.393-7.156-7.393c-4.137 0-7.156 3.018-7.156 7.393s3.019 7.393 7.156 7.393zm-60.298-.305h3.629V35.92h-3.629v20.484zm8.716-16.143c1.255 0 2.272-1.017 2.272-2.306 0-1.289-.983-2.306-2.272-2.306a2.287 2.287 0 0 0-2.306 2.306c0 1.288.983 2.306 2.306 2.306zM76.233 23l-2.068 19.67-3.527-16.584-11.124 2.34 3.493 16.584L47 48.4l2.849 13.226L78.03 67.63l6.443-14.413 3.052-29.03L76.233 23zm-8.919 28.555c-.576.543-1.322.475-2.17.203-.814-.27-1.153-1.22-.882-2.441.237-.882 1.289-1.018 1.865-1.018.204 0 .407.034.61.136.374.17 1.018.543 1.154 1.085.203.814 0 1.492-.577 2.035zm8.173.882c-.44.746-1.526.848-2.645.305-.746-.373-.746-1.255-.644-1.831a1.6 1.6 0 0 1 .373-.848c.271-.34.712-.78 1.187-.78.848-.034 1.526.339 1.933 1.017.407.678.203 1.425-.204 2.137z"/></svg>