<svg xmlns="http://www.w3.org/2000/svg" width="230" height="90" fill="none"><rect width="229" height="89" x=".5" y=".5" fill="#fff" stroke="#F9F9F7" rx="11.5"/><path fill="#2C2F24" d="M144.048 36.223v18.506h-1.564V36.223h1.564zm8.617 8.516v1.347h-9.138v-1.347h9.138zm1.284-8.516v1.347h-10.422v-1.347h10.422zm.757 11.846v-.42c0-1 .144-1.923.432-2.77a6.546 6.546 0 0 1 1.233-2.2 5.616 5.616 0 0 1 1.944-1.436c.754-.347 1.593-.52 2.517-.52.932 0 1.775.173 2.529.52a5.62 5.62 0 0 1 1.945 1.437 6.455 6.455 0 0 1 1.246 2.199c.288.847.432 1.77.432 2.77v.42c0 1-.144 1.923-.432 2.77a6.477 6.477 0 0 1-1.246 2.187 5.638 5.638 0 0 1-1.932 1.449c-.754.339-1.593.508-2.517.508-.932 0-1.775-.17-2.529-.508a5.774 5.774 0 0 1-1.945-1.45 6.458 6.458 0 0 1-1.245-2.185c-.288-.848-.432-1.771-.432-2.771zm1.512-.42v.42c0 .754.102 1.47.305 2.148.204.67.5 1.267.89 1.792.39.517.873.924 1.449 1.22.576.297 1.241.445 1.995.445.746 0 1.403-.148 1.97-.445a4.185 4.185 0 0 0 1.449-1.22c.39-.525.683-1.123.877-1.792a7.414 7.414 0 0 0 .305-2.148v-.42a7.24 7.24 0 0 0-.305-2.122 5.452 5.452 0 0 0-.889-1.792 4.276 4.276 0 0 0-1.449-1.246c-.576-.305-1.237-.458-1.983-.458s-1.407.153-1.983.458a4.433 4.433 0 0 0-1.449 1.246 5.829 5.829 0 0 0-.89 1.792 7.59 7.59 0 0 0-.292 2.122zm12.132.42v-.42c0-1 .144-1.923.433-2.77a6.561 6.561 0 0 1 1.232-2.2 5.63 5.63 0 0 1 1.945-1.436c.754-.347 1.593-.52 2.517-.52.932 0 1.775.173 2.529.52a5.63 5.63 0 0 1 1.945 1.437 6.436 6.436 0 0 1 1.245 2.199c.288.847.432 1.77.432 2.77v.42c0 1-.144 1.923-.432 2.77a6.458 6.458 0 0 1-1.245 2.187 5.638 5.638 0 0 1-1.932 1.449c-.754.339-1.593.508-2.517.508-.932 0-1.775-.17-2.529-.508a5.764 5.764 0 0 1-1.945-1.45 6.458 6.458 0 0 1-1.245-2.185c-.289-.848-.433-1.771-.433-2.771zm1.513-.42v.42c0 .754.102 1.47.305 2.148.203.67.5 1.267.89 1.792.389.517.872.924 1.449 1.22.576.297 1.241.445 1.995.445.746 0 1.402-.148 1.97-.445a4.203 4.203 0 0 0 1.449-1.22c.39-.525.682-1.123.877-1.792a7.414 7.414 0 0 0 .305-2.148v-.42a7.24 7.24 0 0 0-.305-2.122 5.454 5.454 0 0 0-.89-1.792 4.264 4.264 0 0 0-1.448-1.246c-.577-.305-1.238-.458-1.983-.458-.746 0-1.407.153-1.983.458a4.433 4.433 0 0 0-1.449 1.246 5.829 5.829 0 0 0-.89 1.792 7.553 7.553 0 0 0-.292 2.122zm21.906 4.411V35.206h1.526V54.73h-1.424l-.102-2.67zm-9.545-4.068v-.266c0-1.068.123-2.03.369-2.886.245-.864.597-1.601 1.054-2.211a4.694 4.694 0 0 1 1.678-1.411c.653-.33 1.39-.496 2.212-.496.805 0 1.517.132 2.135.394.619.263 1.148.64 1.589 1.132a5.718 5.718 0 0 1 1.08 1.754 9.79 9.79 0 0 1 .61 2.262v3.394a8.386 8.386 0 0 1-.559 2.148 5.71 5.71 0 0 1-1.08 1.69 4.663 4.663 0 0 1-1.627 1.106c-.627.254-1.352.381-2.174.381-.813 0-1.546-.17-2.198-.508a4.82 4.82 0 0 1-1.666-1.437c-.457-.627-.809-1.368-1.054-2.224-.246-.856-.369-1.796-.369-2.822zm1.525-.266v.267c0 .804.081 1.55.242 2.236.161.687.406 1.284.737 1.793.33.508.75.906 1.258 1.194.509.288 1.11.433 1.805.433.873 0 1.606-.166 2.199-.496a4.057 4.057 0 0 0 1.423-1.335 6.05 6.05 0 0 0 .776-1.83v-3.953a8.348 8.348 0 0 0-.445-1.372 4.726 4.726 0 0 0-.801-1.284 3.534 3.534 0 0 0-1.271-.953c-.508-.246-1.127-.37-1.856-.37-.703 0-1.309.145-1.817.433-.509.288-.932.69-1.271 1.208-.331.508-.576 1.105-.737 1.792a9.786 9.786 0 0 0-.242 2.237zM83.176 36.104h5.743c5.78 0 10.373 3.555 10.373 9.549 0 6.532-3.948 9.87-10.373 9.87h-5.743V36.105zm2.763 16.98h2.908c4.774 0 7.43-2.298 7.43-7.324 0-4.522-3.088-7.215-7.107-7.215h-3.267v14.538h.036zm19.815-14.934h-2.944v-2.944h2.944v2.944zm-2.8 3.195h2.621V55.56h-2.621V41.346zm7.502-5.24h5.743c5.78 0 10.375 3.554 10.375 9.548 0 6.532-3.948 9.87-10.375 9.87h-5.743V36.105zm2.8 16.978h2.908c4.774 0 7.43-2.297 7.43-7.323 0-4.522-3.087-7.215-7.109-7.215h-3.265v14.538h.036zm19.778-14.933h-2.944v-2.944h2.944v2.944zm-2.763 3.195h2.619V55.56h-2.619V41.346z"/><path fill="#FC9153" fill-rule="evenodd" d="M54.953 53.836c6.46-.216 11.559-5.348 11.63-11.703v-5.49h7.107v6.066c-.144 9.872-8.723 17.624-18.737 17.841C44.757 60.477 36.107 52.651 36 42.707V31.83c0-1.11.718-1.83 1.794-1.83h28.789v6.642H44.005c-.576 0-.934.36-.934.934v4.451c.072 6.425 5.278 11.737 11.882 11.809z" clip-rule="evenodd"/></svg>