<svg xmlns="http://www.w3.org/2000/svg" width="260" height="90" fill="none"><rect width="259" height="89" x=".5" y=".5" fill="#fff" stroke="#F9F9F7" rx="11.5"/><path fill="#D70F64" d="M81.004 39.333h2.379v-2.285c0-2.761 1.526-4.571 4.571-4.571l1.526.288v2.76l-1.62-.288c-.953 0-1.331.576-1.331 1.526v2.57h3.045v2.76h-3.049v11.428H83.48V42.094h-2.476v-2.76zm16.283-.284c3.905 0 7.429 3.045 7.429 7.429s-3.427 7.425-7.43 7.425c-4.001 0-7.424-3.045-7.424-7.425 0-4.478 3.52-7.43 7.425-7.43zm0 12.093c2.858 0 4.38-2.095 4.38-4.664 0-2.57-1.522-4.669-4.38-4.669-2.858 0-4.38 2.095-4.38 4.669 0 2.472 1.526 4.664 4.38 4.664zm16.096-12.093c3.905 0 7.425 3.045 7.425 7.429s-3.426 7.425-7.425 7.425c-3.999 0-7.429-3.045-7.429-7.425.094-4.478 3.524-7.43 7.429-7.43zm0 12.093c2.854 0 4.38-2.095 4.38-4.664 0-2.57-1.526-4.669-4.38-4.669s-4.38 2.095-4.38 4.669c0 2.472 1.522 4.664 4.38 4.664zm23.237 2.38h-2.765l-.288-1.235-.187-.19-.19.19c-.954.95-2.38 1.522-3.906 1.522-3.905 0-7.234-3.048-7.234-7.428s3.329-7.43 7.234-7.43c1.526 0 3.049.577 3.906 1.527l.19.19.191-.19v-7.904h3.049V53.52zm-7.145-11.806c-2.858 0-4.38 2.095-4.38 4.664 0 2.57 1.522 4.669 4.38 4.669 2.574 0 4.38-2.099 4.38-4.669 0-2.476-1.806-4.664-4.38-4.664zm10.19-2.383h2.764l.284 1.238.191.191.191-.19c.95-.95 2.379-1.523 3.905-1.523 3.901 0 7.234 3.045 7.234 7.429s-3.333 7.425-7.234 7.425c-1.526 0-3.049-.569-3.905-1.523l-.191-.19-.191.19V60h-2.951V39.333h-.097zm7.047 11.81c2.858 0 4.38-2.096 4.38-4.665 0-2.57-1.522-4.669-4.38-4.669-2.57 0-4.38 2.095-4.38 4.669 0 2.472 1.81 4.664 4.38 4.664zm15.048-6.476h2.473v-.666c0-1.716-1.141-2.476-2.761-2.476-1.331 0-2.188.666-2.663 1.904l-2.667-.572c.569-2.38 2.663-3.905 5.428-3.905 3.808 0 5.712 1.907 5.712 5.618v8.858h-2.477l-.288-1.908c-.95 1.433-2.472 2.099-4.473 2.099-2.57 0-4.381-1.523-4.381-4.38-.093-2.761 2.383-4.572 6.097-4.572zm-1.331 6.475c.95 0 1.9-.288 2.57-.954.759-.665 1.141-1.522 1.141-2.663v-.288h-2.57c-1.811 0-2.952.857-2.952 2.192 0 .95.666 1.713 1.807 1.713h.004zm9.52-11.809h2.76l.288 1.238.191.191.187-.19c.576-.95 2.099-1.523 3.337-1.523 3.617 0 5.712 2.379 5.712 5.712v8.76h-3.049v-8.76c-.093-1.904-1.044-3.045-3.045-3.045-1.81 0-3.239 1.429-3.333 3.24v8.565h-3.048V39.333zm28.758 14.188h-2.761l-.288-1.234-.187-.19-.191.19c-.954.95-2.382 1.522-3.905 1.522-3.905 0-7.234-3.048-7.234-7.428s3.329-7.43 7.234-7.43c1.523 0 3.049.577 3.905 1.527l.191.19.191-.19v-7.904h3.045V53.52zm-7.048-11.805c-2.854 0-4.38 2.095-4.38 4.664 0 2.57 1.526 4.669 4.38 4.669 2.574 0 4.384-2.099 4.384-4.669 0-2.476-1.81-4.664-4.384-4.664zm15.715 2.951h2.476v-.666c0-1.716-1.141-2.476-2.761-2.476-1.331 0-2.192.666-2.667 1.904l-2.663-.572c.569-2.38 2.663-3.905 5.424-3.905 3.812 0 5.716 1.907 5.716 5.618v8.858h-2.477l-.288-1.908c-.95 1.433-2.476 2.099-4.473 2.099-2.574 0-4.381-1.523-4.381-4.38-.097-2.761 2.286-4.572 6.094-4.572zm-1.332 6.475c.95 0 1.904-.288 2.57-.954.763-.665 1.144-1.522 1.144-2.663v-.288h-2.573c-1.81 0-2.951.857-2.951 2.192 0 .95.665 1.713 1.81 1.713zM59.939 49.047c1.717 0 3.146-1.238 3.146-2.76h-6.288c0 1.522 1.328 2.76 3.142 2.76z"/><path fill="#D70F64" d="M70.522 35.907c.762-.573 1.144-1.526 1.144-2.574 0-1.904-1.522-3.333-3.43-3.333-1.235 0-2.286.573-2.854 1.526a12.328 12.328 0 0 0-5.525-1.238 13.066 13.066 0 0 0-5.521 1.238C53.76 30.57 52.716 30 51.478 30a3.394 3.394 0 0 0-3.43 3.333 3.598 3.598 0 0 0 1.144 2.574A12.417 12.417 0 0 0 47 43.047a12.864 12.864 0 0 0 12.857 12.86 12.863 12.863 0 0 0 12.856-12.856c0-2.663-.763-5.143-2.191-7.14v-.004zm-10.568 18.95c-6.482 0-11.81-5.334-11.81-11.806 0-2.48.76-4.765 1.998-6.67a11.194 11.194 0 0 1 4.669-3.998c1.522-.763 3.333-1.145 5.14-1.145 1.806 0 3.617.382 5.14 1.145 1.907.95 3.43 2.285 4.668 3.999 1.238 1.907 1.997 4.19 1.997 6.666 0 6.478-5.33 11.805-11.806 11.805l.004.004z"/><path fill="#D70F64" d="M59.936 45.524c.194.094 2.195-.666 2.195-1.62 0-.572-1.62-.665-2.195-.665-.576 0-2.189.093-2.189.666-.093.953 1.998 1.713 2.189 1.62zm7.429-8c-1.141-.76-3.618-1.142-4.571.096 0 0-1.239 1.332 0 2.664 1.238 1.331 2.094 2.67 2.382 3.718.288 1.14.76 1.522 1.62 1.522.86 0 2.57-1.331 2.854-3.523a4.783 4.783 0 0 0-2.285-4.478zm-2.57 2.763a.651.651 0 0 1-.666-.666c0-.378.288-.669.666-.669.378 0 .666.288.666.67a.651.651 0 0 1-.666.665zm-7.81-2.667c-.95-1.238-3.427-.856-4.572-.097-1.144.76-2.476 2.286-2.285 4.478.19 2.192 1.907 3.523 2.858 3.523.856 0 1.331-.475 1.62-1.522.287-1.145 1.237-2.383 2.378-3.715 1.238-1.429 0-2.667 0-2.667zm-1.807 2.664a.651.651 0 0 1-.67-.663c0-.378.288-.669.67-.669.381 0 .665.288.665.67a.648.648 0 0 1-.666.662z"/></svg>