<svg xmlns="http://www.w3.org/2000/svg" width="222" height="90" fill="none"><rect width="219.909" height="89" x="1.047" y=".5" fill="#fff" stroke="#F9F9F7" rx="11.5"/><path fill="#F63440" d="M150.85 33.071h-4.1c-.231 0-.347.116-.347.347v16.228c0 .809-.26 1.415-.606 1.877-.347.462-.809.578-1.386.578a1.98 1.98 0 0 1-1.415-.578c-.347-.462-.578-1.068-.578-1.877V33.418c0-.231-.231-.347-.346-.347h-4.13c-.231 0-.346.116-.346.347v16.344c0 2.108.462 4.1 1.761 5.4 1.271 1.3 3.032 1.992 5.054 1.992 2.108 0 3.869-.693 5.053-1.992 1.271-1.27 1.762-3.148 1.762-5.4V33.418c.115-.116-.116-.347-.376-.347zm15.738 11.522c.693-.693 1.993-2.339 1.993-4.476 0-2.483-.953-3.985-1.675-4.822-1.299-1.386-3.032-2.108-5.053-2.108h-6.469a.375.375 0 0 0-.375.346v22.928c0 .231.231.347.375.347h6.844c2.108 0 4.1-.809 5.4-2.483.693-.925 1.53-2.484 1.53-4.823-.231-2.801-1.963-4.447-2.57-4.909zm-6.815-6.7h2.108c.578 0 1.04.116 1.387.578.375.375.49.953.49 1.675 0 .722-.115 1.27-.49 1.761-.347.347-.809.578-1.271.578h-2.108v-4.591h-.116zm3.754 13.515c-.346.462-.808.578-1.53.578h-2.339v-4.967h2.339c.577 0 1.039.26 1.386.606.375.462.606 1.04.606 1.761.116.953-.086 1.531-.462 2.022zM79.9 46.585c.462-.346.837-.577 1.184-1.068.808-.924 1.877-2.57 1.877-5.169 0-2.483-.953-4.1-1.877-5.053-1.184-1.386-2.946-2.108-4.938-2.224H69.33c-.231 0-.347.231-.347.347v22.9c0 .23.231.346.347.346h4.1c.231 0 .347-.232.347-.347v-8.46h1.415l2.57 8.691c0 .116.26.231.375.231h4.332c.115 0 .231-.115.346-.115.116 0 .116-.232.116-.347L79.9 46.585zm-2.6-4.245c-.346.463-.923.722-1.645.722h-1.993v-5.168h1.993c.693 0 1.27.23 1.646.693.462.49.606 1.068.606 1.877 0 .837-.115 1.414-.606 1.876zm37.339 2.253c.722-.693 1.992-2.339 1.992-4.476 0-2.483-.924-3.985-1.646-4.822-1.299-1.386-3.061-2.108-5.053-2.108h-6.44c-.231 0-.346.23-.346.346v22.928c0 .231.231.347.346.347h6.815c2.108 0 4.101-.809 5.429-2.483.693-.925 1.531-2.484 1.531-4.823-.145-2.801-1.906-4.447-2.628-4.909zm-6.786-6.7h2.108c.577 0 1.039.116 1.386.578.346.375.462.953.462 1.675 0 .722-.116 1.27-.462 1.761-.347.347-.809.578-1.271.578h-2.108v-4.591h-.115zm3.869 13.515c-.346.462-.808.578-1.53.578h-2.339v-4.967h2.339c.577 0 1.039.26 1.386.606.346.462.606 1.04.606 1.761.029.953-.086 1.531-.462 2.022zM58.849 32.725c-2.108 0-3.87.693-5.054 1.992-1.27 1.3-1.733 3.148-1.733 5.4v9.76c0 2.108.463 4.1 1.733 5.4 1.3 1.3 3.061 1.993 5.054 1.993 2.108 0 3.898-.693 5.082-1.993 1.27-1.27 1.733-3.147 1.733-5.4v-5.37c0-.26-.231-.491-.463-.491h-5.977c-.26 0-.49.23-.49.49v3.985c0 .231.23.462.49.462h1.53v.953c0 .809-.23 1.53-.577 1.993-.347.462-.837.577-1.415.577-.578 0-1.04-.23-1.415-.577-.346-.462-.577-1.184-.577-1.993v-9.644c0-.838.23-1.56.577-1.993.375-.462.837-.578 1.415-.578.578 0 1.069.231 1.415.578.347.462.578 1.155.578 1.993v.924c0 .23.23.375.346.375h4.1c.232 0 .347-.145.347-.375v-.924c0-2.109-.462-4.101-1.761-5.4-1.04-1.444-2.946-2.137-4.938-2.137zm40.196.346h-4.1c-.231 0-.347.116-.347.347v16.228c0 .809-.26 1.415-.606 1.877-.347.462-.809.578-1.386.578a1.982 1.982 0 0 1-1.415-.578c-.347-.462-.578-1.068-.578-1.877V33.418c0-.231-.26-.347-.375-.347h-4.1c-.232 0-.347.116-.347.347v16.344c0 2.108.49 4.1 1.761 5.4 1.3 1.3 3.061 1.992 5.054 1.992 2.108 0 3.898-.693 5.053-1.992 1.3-1.27 1.762-3.148 1.762-5.4V33.418c-.03-.116-.145-.347-.376-.347zm34.537 0h-4.101c-.231 0-.346.231-.346.347v8.922h-4.1v-8.922c0-.231-.232-.347-.347-.347h-4.101c-.231 0-.346.231-.346.347v22.9c0 .23.231.346.346.346h4.101c.231 0 .347-.232.347-.347v-9.154h4.1v9.154c0 .231.231.347.346.347h4.101c.231 0 .347-.232.347-.347v-22.9c0-.115-.116-.346-.347-.346z"/></svg>