<svg xmlns="http://www.w3.org/2000/svg" width="230" height="90" fill="none"><rect width="229" height="89" x=".5" y=".5" fill="#fff" stroke="#F9F9F7" rx="11.5"/><path fill="#FF8200" d="M58.047 42.074c1.782 1.791 3.24 4.724 2.406 6.466-2.231 4.66-18.877 12.833-20.291 11.418-1.414-1.414 6.764-18.066 11.425-20.298 1.742-.834 4.675.623 6.467 2.406l-.007.008z"/><path fill="#43B02A" d="M66.864 40.105c-.289-1.072-1.028-2.155-2.13-2.283-2.024-.235-5.211 3.34-4.983 4.19.227.848 4.732 2.344 6.413 1.135.867-.623.99-1.97.705-3.042h-.005zm-6.26-9.907c1.503.407 3.022 1.442 3.201 2.988.33 2.836-4.684 7.306-5.874 6.987-1.19-.319-3.287-6.634-1.591-8.993.874-1.215 2.761-1.386 4.266-.988l-.001.006zm44.769 16.782-1.489-.226c-1.419-.21-2.241-.67-2.241-1.505 0-.96 1.069-1.554 2.65-1.554 1.117 0 2.027.418 2.898.862l.174.088a1.418 1.418 0 0 0 1.883-.58l.121-.218a1.45 1.45 0 0 0-.619-2c-1.268-.635-2.645-1.206-4.459-1.206-3.789 0-6.23 1.83-6.23 4.775 0 2.417 1.737 3.933 5.026 4.382l1.502.195c1.587.222 2.359.691 2.359 1.436 0 .688-.372 1.6-2.83 1.6-1.356 0-2.732-.344-3.85-1.052a1.39 1.39 0 0 0-.743-.216c-.491 0-.957.26-1.216.679l-.084.135a1.47 1.47 0 0 0-.172 1.132c.098.383.34.699.682.89 1.947 1.094 4.197 1.483 5.381 1.483 3.951 0 6.395-1.731 6.395-4.778.004-2.434-1.727-3.832-5.138-4.322zm45.93 5.322a1.506 1.506 0 0 0-1.122-.501c-.289 0-.57.082-.817.237-.804.51-1.684.78-2.548.78-2.373 0-4.096-1.874-4.096-4.457 0-2.582 1.723-4.457 4.096-4.457a4.37 4.37 0 0 1 2.493.757c.593.395 1.445.294 1.933-.228l.127-.135c.334-.356.492-.84.435-1.325a1.62 1.62 0 0 0-.713-1.166c-1.167-.775-2.614-1.183-4.184-1.183-4.555 0-7.737 3.182-7.737 7.736 0 4.555 3.182 7.737 7.737 7.737 1.577 0 3.032-.417 4.208-1.207.393-.264.652-.685.711-1.157a1.654 1.654 0 0 0-.409-1.309l-.114-.122zM77.583 35.39c-1.186 0-2.114.94-2.114 2.14 0 1.206.908 2.115 2.114 2.115 1.2 0 2.14-.928 2.14-2.114 0-1.2-.94-2.141-2.14-2.141zm.639 5.36h-1.247c-.61 0-1.106.495-1.106 1.106v12.758c0 .61.495 1.106 1.106 1.106h1.247c.61 0 1.106-.495 1.106-1.106V41.857c0-.611-.495-1.106-1.106-1.106zm40.947 12c-1.399-.005-3.026-1.101-3.026-3.022v-5.755h3.036c.611 0 1.107-.496 1.107-1.107v-1.01c0-.611-.496-1.106-1.107-1.106h-3.036v-3.322c0-.61-.496-1.106-1.106-1.106h-1.316c-.61 0-1.106.495-1.106 1.106v12.094c0 3.482 2.642 6.56 6.301 6.56h.001c.365 0 .709-.142.97-.403.259-.26.403-.604.403-.97v-.852a1.118 1.118 0 0 0-1.121-1.106zM88.946 40.626c-4.427 0-6.897 3.542-6.897 6.572v7.418c0 .61.495 1.106 1.106 1.106h1.261c.61 0 1.106-.495 1.106-1.106v-6.862c0-2.297 1.393-3.82 3.423-3.82 2.03 0 3.422 1.523 3.422 3.82v6.862c0 .61.495 1.106 1.106 1.106h1.261c.611 0 1.107-.495 1.107-1.106v-7.418c.003-3.031-2.466-6.572-6.895-6.572zm91.079.154c-.48-.105-1.683-.154-2.307-.154l-.165.002c-3.428 0-6.594 2.794-6.594 6.646l-.001.01v7.332c0 .61.495 1.106 1.106 1.106h1.261c.611 0 1.106-.495 1.106-1.106V47.4c0-2.097 1.498-3.465 3.333-3.465.336.006.696.043 1.049.113a1.517 1.517 0 0 0 1.763-1.136c.089-.375.156-.652.219-.907a1.03 1.03 0 0 0-.125-.776 1.016 1.016 0 0 0-.645-.45zm9.252 3.195c.61 0 1.106-.496 1.106-1.107v-1.01c0-.611-.496-1.106-1.106-1.106h-3.037V37.43c0-.61-.495-1.106-1.107-1.106h-1.316c-.611 0-1.106.495-1.106 1.106v12.094c0 3.482 2.642 6.56 6.301 6.56h.001c.366 0 .709-.142.97-.403.259-.26.403-.604.403-.97v-.852c0-.615-.503-1.105-1.118-1.106-1.399-.006-3.026-1.102-3.026-3.023v-5.755h3.035zm-24.076-2.161-.006-.005c-1.168-.774-2.614-1.183-4.184-1.183l-.081.002-.081-.002c-1.571 0-3.019.409-4.184 1.183l-.006.005c-2.101 1.322-3.384 3.658-3.384 6.55 0 3.028 1.408 5.448 3.689 6.73a7.253 7.253 0 0 0 3.687 1.004c2.485.002 3.987-1.407 4.458-2.022v.53c0 .61.496 1.106 1.107 1.106h1.261c.611 0 1.106-.495 1.106-1.106v-6.244c.001-2.891-1.281-5.227-3.382-6.548zm-2.882 10.773a4.485 4.485 0 0 1-1.224.228l-.09.003-.075.002-.076-.002a4.485 4.485 0 0 1-1.314-.23c-1.631-.577-2.715-2.177-2.715-4.226 0-2.417 1.511-4.215 3.651-4.434.011-.002.022-.002.034-.003.048-.005.097-.009.146-.012l.083-.004.142-.003.05-.001.05.001c.048 0 .095.002.142.003l.083.004c.048.003.098.006.147.012l.034.003c2.139.219 3.65 2.015 3.65 4.434-.003 2.047-1.086 3.649-2.718 4.225zm-28.607-10.773-.006-.005c-1.167-.774-2.614-1.183-4.184-1.183l-.081.002-.081-.002c-1.571 0-3.018.409-4.184 1.183l-.006.005c-2.101 1.322-3.384 3.658-3.384 6.55 0 3.028 1.408 5.448 3.689 6.73a7.253 7.253 0 0 0 3.687 1.004c2.485.002 3.987-1.407 4.459-2.022v.53c0 .61.495 1.106 1.106 1.106h1.261c.611 0 1.106-.495 1.106-1.106v-6.244c.002-2.891-1.281-5.227-3.382-6.548zm-2.882 10.773a4.478 4.478 0 0 1-1.224.228l-.09.003-.075.002-.076-.002a4.485 4.485 0 0 1-1.314-.23c-1.631-.577-2.714-2.177-2.714-4.226 0-2.417 1.51-4.215 3.65-4.434.011-.002.022-.002.034-.003.048-.005.097-.009.146-.012l.083-.004.142-.003.05-.001.05.001c.048 0 .095.002.142.003l.083.004c.048.003.098.006.147.012l.034.003c2.139.219 3.65 2.015 3.65 4.434-.003 2.047-1.086 3.649-2.718 4.225z"/></svg>