<svg xmlns="http://www.w3.org/2000/svg" width="230" height="90" fill="none"><rect width="229" height="89" x=".5" y=".5" fill="#fff" stroke="#F9F9F7" rx="11.5"/><path fill="#FF3131" d="M88.606 34.176C90 33.319 91.661 32.98 93.282 33c2.439.087 4.868.723 7.015 1.888-1.37 1.219-2.817 2.351-4.208 3.55-.913-.217-1.857-.566-2.804-.348-.633.14-1.276.443-1.648 1-.373.553-.326 1.35.128 1.845.537.607 1.33.88 2.074 1.135 1.65.518 3.382.905 4.838 1.881.966.627 1.775 1.527 2.18 2.61.399 1.01.452 2.12.372 3.193-.083 1.437-.442 2.895-1.251 4.104-.839 1.267-2.169 2.127-3.561 2.679-2.95 1.116-6.3.876-9.195-.292a14.81 14.81 0 0 1-2.988-1.62 238.777 238.777 0 0 1 3.102-4.173c1.276.582 2.568 1.135 3.906 1.552.902.316 1.938.175 2.754-.31a2.063 2.063 0 0 0 1.023-1.782c.036-.607-.334-1.158-.803-1.507-.965-.716-2.17-.959-3.299-1.3-1.434-.434-2.932-.881-4.091-1.875-.95-.803-1.457-2.016-1.6-3.229-.157-1.469-.075-2.997.484-4.38a6.933 6.933 0 0 1 2.896-3.446zm-34.875-.592c1.947.002 3.895 0 5.842.002v13.4c0 1.437.087 2.89-.18 4.312-.261 1.418-.849 2.808-1.86 3.855-1.106 1.162-2.67 1.801-4.245 1.985-1.141.13-2.324.13-3.427-.23-1.62-.497-2.951-1.68-3.861-3.085 1.148-1.218 2.31-2.42 3.456-3.64.436.572.9 1.133 1.473 1.575.387.294.892.485 1.378.34.514-.094.93-.494 1.118-.97.24-.588.297-1.231.305-1.858V33.584zm9 .01c1.947-.008 3.895-.02 5.841-.008.01 3.679.001 7.361.004 11.04.006 1.417-.057 2.855.282 4.244.221.933.672 1.867 1.478 2.43.898.633 2.055.745 3.12.643.915-.094 1.835-.497 2.393-1.248.482-.628.726-1.4.86-2.172.155-.91.188-1.837.187-2.76-.001-4.058.001-8.12-.001-12.18 1.946-.005 3.894 0 5.842-.001.002 4.522 0 9.046.001 13.568-.004 1.535-.046 3.097-.501 4.574a6.914 6.914 0 0 1-2.289 3.39c-1.28 1.037-2.874 1.604-4.478 1.893-1.797.31-3.648.304-5.442-.023-1.588-.3-3.165-.88-4.425-1.918a7.282 7.282 0 0 1-1.677-1.986c-.761-1.324-1.043-2.86-1.135-4.367-.081-1.168-.05-2.34-.057-3.512-.002-3.868-.001-7.737-.002-11.607zm38.547-.008c6.327-.002 12.654 0 18.979 0 .021 1.707.037 3.416-.009 5.123H113.7c-.009 6.076.009 12.153.005 18.23-1.948.005-3.898 0-5.844.004-.029-6.077-.006-12.156-.013-18.233-2.187 0-4.373-.005-6.558.003-.028-1.71-.003-3.418-.012-5.127zm26.342 0c4.826-.002 9.653-.002 14.482 0l-.001 5.111c-2.878.03-5.756.004-8.633.014 0 1.324-.003 2.648 0 3.974 2.395.032 4.79.008 7.185.017-.008 1.722.013 3.444-.01 5.166-.523.068-1.069.01-1.601.029-1.859 0-3.716-.002-5.575 0 .003 1.306-.006 2.61.005 3.916 2.876-.003 5.753 0 8.63-.002-.001 1.71 0 3.422-.002 5.132h-14.481l.001-23.357zm24.477.006c2.143.002 4.285-.002 6.427.002 2.933 7.783 5.847 15.57 8.783 23.35-2.15.01-4.3 0-6.45.005a643.145 643.145 0 0 1-1.483-4.012c-2.765-.01-5.531-.006-8.296-.002-.529 1.34-1.066 2.675-1.593 4.014-2.134-.02-4.27-.001-6.402-.012 3.007-7.78 6.005-15.564 9.014-23.345zm12.221-.003c6.332-.01 12.664-.003 18.996-.003-.004 1.708.004 3.415-.004 5.122-2.189-.002-4.379.006-6.569-.003-.021 6.078.021 12.16.004 18.238-1.951-.004-3.9.002-5.849-.004-.018-6.077-.002-12.154-.008-18.23-2.076 0-4.154-.003-6.23.002a1.342 1.342 0 0 1-.348-.05c.018-1.69-.001-3.382.008-5.072z"/><path fill="#fff" d="M154.147 39.11c1.756 2.881 3.534 5.751 5.286 8.636-.933-.023-1.866-.087-2.798-.098.185.96.384 1.915.578 2.871-.496.096-.987.232-1.49.285-.177-.955-.381-1.906-.573-2.859-.854.363-1.678.792-2.529 1.163.225-1.741.526-3.473.78-5.211.253-1.595.478-3.194.746-4.788z"/></svg>