<svg xmlns="http://www.w3.org/2000/svg" width="222" height="90" fill="none"><rect width="219.909" height="89" x=".953" y=".5" fill="#fff" stroke="#F9F9F7" rx="11.5"/><path fill="#000" d="M34.797 56.884v-24.16h10.051c4.325 0 7.137 3.152 7.137 7.342 0 4.19-2.812 7.35-7.137 7.35h-6.207v9.452l-3.844.016zm3.844-20.898v8.2h6.034c1.922 0 3.466-1.954 3.466-4.12 0-2.166-1.575-4.08-3.466-4.08H38.64zM71.379 51.81c1.236-.244 2.442-.48 3.639-.685.244 1.37 1.064 3.017 3.844 3.017.622 0 3.67-.236 3.67-2.434 0-4.152-10.633.134-10.633-7.31 0-2.954 2.946-5.184 6.656-5.184 3.71 0 6.861 1.576 7.38 5.42-1.236.213-2.441.449-3.638.693-.245-2.166-1.576-2.954-3.64-2.954-1.82 0-3.056.961-3.056 2.025 0 1.41 1.308 1.78 3.364 1.993 3.938.41 7.239 1.268 7.239 5.317 0 3.639-3.151 5.561-7.342 5.561-4.458 0-7.003-2.363-7.483-5.459zm15.794-9.453v-2.835h2.985V34.48h3.71v5.01h3.6v2.867h-3.6v9.847c0 1.37.41 1.788 1.576 1.788.512 0 1.646-.07 1.646-.07v2.985s-1.331.134-2.647.134c-3.26 0-4.324-1.75-4.324-5.073v-9.61h-2.946zm23.206 4.853c0-2.647-.583-4.876-3.364-4.876-2.646 0-3.363 2.23-3.363 4.876v9.673h-3.71v-17.33h3.363l.347 1.883c.512-.961 2.576-2.23 4.6-2.23a5.228 5.228 0 0 1 4.837 2.608c.929-1.575 3.151-2.607 5.214-2.607 4.727 0 6.176 2.883 6.176 8.034v9.674h-3.655V47.21c0-2.615-.717-4.908-3.363-4.908-2.781 0-3.364 2.23-3.364 4.908v9.673h-3.702l-.016-9.673zm20.827-1.702c-1.197-.205-2.434-.48-3.67-.685.378-3.844 3.536-5.632 7.176-5.632 4.907 0 7.444 2.363 7.444 7.137v6.041c0 1.032.204 1.615.929 1.615.302-.004.602-.052.89-.142v3.025a7.937 7.937 0 0 1-2.197.276 2.86 2.86 0 0 1-3.017-2.473 7.224 7.224 0 0 1-5.42 2.575c-4.017 0-6.42-2.237-6.42-5.514 0-2.71 2.505-5.183 7.09-5.183h4.466v-1.04c0-1.339-.551-3.15-3.742-3.15-2.127 0-3.434 1.063-3.505 3.15m7.247 4.664v-.859h-4.088c-3.049 0-3.671 1.575-3.671 2.403 0 1.166.788 2.363 3.056 2.363 3.017 0 4.727-2.056 4.727-3.939m-77.489 7.121a9.035 9.035 0 1 1 9.035-9.035 9.043 9.043 0 0 1-9.035 9.035zm0-14.62a5.593 5.593 0 1 0 0 11.186 5.593 5.593 0 0 0 0-11.186zM167.04 50.85c1.134.307 2.261.646 3.395.993-.788 2.505-3.151 5.388-7.877 5.388-4.727 0-8.169-3.671-8.169-9.028 0-5.356 3.151-9.027 7.995-9.027 4.845 0 7.83 3.23 7.83 8.476a13.24 13.24 0 0 1-.071 1.654h-11.926c.071 2.537 1.82 4.797 4.325 4.797a4.561 4.561 0 0 0 4.498-3.253zm-.788-4.325c-.102-2.575-1.339-4.222-3.883-4.222-2.545 0-3.876 2.056-3.978 4.223h7.861zm5.554 5.286c1.236-.236 2.442-.48 3.639-.685.244 1.37 1.063 3.017 3.844 3.017.614 0 3.671-.236 3.671-2.434 0-4.152-10.635.141-10.635-7.31 0-2.946 2.947-5.184 6.657-5.184s6.861 1.576 7.373 5.428c-1.229.205-2.434.441-3.632.685-.244-2.166-1.575-2.954-3.639-2.954-1.819 0-3.056.961-3.056 2.025 0 1.41 1.307 1.788 3.363 1.993 3.939.41 7.24 1.268 7.24 5.317 0 3.639-3.151 5.561-7.342 5.561-4.459 0-7.003-2.363-7.483-5.459zm-28.382-9.453v-2.835h2.985V34.48h3.711v5.01h3.599v2.867h-3.599v9.847c0 1.37.409 1.788 1.614 1.788.512 0 1.647-.07 1.647-.07v2.985s-1.324.134-2.647.134c-3.253 0-4.325-1.75-4.325-5.073v-9.61h-2.985z"/></svg>