<svg xmlns="http://www.w3.org/2000/svg" width="222" height="90" fill="none"><rect width="219.909" height="89" x="1.137" y=".5" fill="#fff" stroke="#F9F9F7" rx="11.5"/><path fill="#05C167" d="M115.309 32.728h16.901v4.136h-12.336v5.872h11.993v3.995h-11.993v5.971h12.336v4.136h-16.901v-24.11zm63.577 24.544c5.181 0 8.101-2.481 8.101-5.889 0-2.427-1.729-4.239-5.347-5.024l-3.825-.782c-2.221-.413-2.92-.827-2.92-1.654 0-1.071 1.071-1.729 3.044-1.729 2.138 0 3.722.575 4.135 2.552h4.483c-.244-3.722-2.92-6.178-8.345-6.178-4.69 0-7.982 1.935-7.982 5.686 0 2.593 1.812 4.28 5.72 5.103l4.276.988c1.687.331 2.138.786 2.138 1.485 0 1.112-1.274 1.811-3.334 1.811-2.588 0-4.069-.575-4.644-2.551h-4.507c.657 3.713 3.412 6.182 9.007 6.182zm-10.31-.45h-4.851c-3.043 0-4.73-1.895-4.73-4.285v-9.47h-3.412V39.03h3.428v-5.066h4.508v5.066h5.057v4.036h-5.057v8.316c0 .947.657 1.402 1.687 1.402h3.37v4.036zM149.14 39.038v1.605a8.751 8.751 0 0 0-5.678-2.068 9.35 9.35 0 1 0 0 18.696 8.725 8.725 0 0 0 5.678-2.068v1.609h4.495V39.03l-4.495.008zm-5.306 14.33a5.436 5.436 0 0 1-3.927-9.263 5.434 5.434 0 0 1 5.935-1.204 5.433 5.433 0 0 1 3.368 5.032 5.381 5.381 0 0 1-1.56 3.837 5.362 5.362 0 0 1-3.824 1.589l.008.008z"/><path fill="#000" d="M105.251 42.368c-2.262 0-3.866 1.77-3.866 4.487v9.966h-3.453V39.28h3.411v2.142a4.629 4.629 0 0 1 4.111-2.266h1.241v3.213h-1.444zm-9.705 5.682c0-5.231-3.722-9.143-8.76-9.143a9.027 9.027 0 0 0-8.965 9.143c0 5.227 4.032 9.18 9.293 9.18a9.168 9.168 0 0 0 7.567-3.746l-2.506-1.836a6.112 6.112 0 0 1-5.061 2.551 5.88 5.88 0 0 1-5.79-5.02h14.23l-.008-1.129zm-14.147-1.609c.616-2.675 2.754-4.486 5.347-4.486 2.593 0 4.726 1.81 5.305 4.486H81.4zm-14.516-7.534A8.736 8.736 0 0 0 60.68 41.5v-8.772h-3.453v24.093h3.412v-2.225a8.87 8.87 0 0 0 6.253 2.635 9.164 9.164 0 1 0 0-18.324h-.009zm-.248 15.239a6.075 6.075 0 1 1 6.046-6.055 6.03 6.03 0 0 1-6.046 6.038v.017zm-22.124-.166c3.333 0 5.922-2.555 5.922-6.385V32.728h3.577v24.093h-3.536v-2.278a8.784 8.784 0 0 1-6.372 2.675c-5.14 0-9.098-3.747-9.098-9.429V32.73h3.643v14.887c0 3.85 2.481 6.364 5.864 6.364z"/></svg>